<mxfile host="app.diagrams.net" modified="2022-01-06T03:59:34.665Z" agent="5.0 (Macintosh; Intel Mac OS X 10_15_7) AppleWebKit/537.36 (KHTML, like Gecko) Chrome/96.0.4664.110 Safari/537.36" etag="CH_UU_063kPZeI03CRN4" version="16.2.1" type="github">
  <diagram id="oxyXVkI9Ric1XEXwKebk" name="Page-1">
    <mxGraphModel dx="1012" dy="566" grid="1" gridSize="10" guides="1" tooltips="1" connect="1" arrows="1" fold="1" page="1" pageScale="1" pageWidth="827" pageHeight="1169" math="0" shadow="0">
      <root>
        <mxCell id="0" />
        <mxCell id="1" parent="0" />
        <mxCell id="Qq11cZZKiJJLbEFsRQUl-4" value="AWS Cloud" style="points=[[0,0],[0.25,0],[0.5,0],[0.75,0],[1,0],[1,0.25],[1,0.5],[1,0.75],[1,1],[0.75,1],[0.5,1],[0.25,1],[0,1],[0,0.75],[0,0.5],[0,0.25]];outlineConnect=0;html=1;whiteSpace=wrap;fontSize=12;fontStyle=0;shape=mxgraph.aws4.group;grIcon=mxgraph.aws4.group_aws_cloud_alt;strokeColor=#666666;fillColor=#f5f5f5;verticalAlign=top;align=left;spacingLeft=30;fontColor=#333333;dashed=0;" parent="1" vertex="1">
          <mxGeometry x="270" y="140" width="740" height="520" as="geometry" />
        </mxCell>
        <mxCell id="VVyzHIEydIfafASwC3Oe-1" style="edgeStyle=orthogonalEdgeStyle;rounded=0;orthogonalLoop=1;jettySize=auto;html=1;" parent="1" source="Qq11cZZKiJJLbEFsRQUl-10" target="Qq11cZZKiJJLbEFsRQUl-13" edge="1">
          <mxGeometry relative="1" as="geometry" />
        </mxCell>
        <mxCell id="VVyzHIEydIfafASwC3Oe-27" style="edgeStyle=orthogonalEdgeStyle;rounded=0;orthogonalLoop=1;jettySize=auto;html=1;entryX=0;entryY=0.5;entryDx=0;entryDy=0;entryPerimeter=0;" parent="1" source="Qq11cZZKiJJLbEFsRQUl-10" target="Qq11cZZKiJJLbEFsRQUl-12" edge="1">
          <mxGeometry relative="1" as="geometry" />
        </mxCell>
        <mxCell id="VVyzHIEydIfafASwC3Oe-28" value="Dns 解析" style="edgeLabel;html=1;align=center;verticalAlign=middle;resizable=0;points=[];fontStyle=1" parent="VVyzHIEydIfafASwC3Oe-27" vertex="1" connectable="0">
          <mxGeometry x="0.2482" relative="1" as="geometry">
            <mxPoint y="1" as="offset" />
          </mxGeometry>
        </mxCell>
        <mxCell id="VVyzHIEydIfafASwC3Oe-29" value="业务请求" style="edgeLabel;html=1;align=center;verticalAlign=middle;resizable=0;points=[];fontStyle=1" parent="VVyzHIEydIfafASwC3Oe-27" vertex="1" connectable="0">
          <mxGeometry x="-0.7348" y="1" relative="1" as="geometry">
            <mxPoint as="offset" />
          </mxGeometry>
        </mxCell>
        <mxCell id="Qq11cZZKiJJLbEFsRQUl-10" value="" style="sketch=0;points=[[0,0,0],[0.25,0,0],[0.5,0,0],[0.75,0,0],[1,0,0],[0,1,0],[0.25,1,0],[0.5,1,0],[0.75,1,0],[1,1,0],[0,0.25,0],[0,0.5,0],[0,0.75,0],[1,0.25,0],[1,0.5,0],[1,0.75,0]];outlineConnect=0;fontColor=#232F3E;gradientColor=#F54749;gradientDirection=north;fillColor=#C7131F;strokeColor=#ffffff;dashed=0;verticalLabelPosition=bottom;verticalAlign=top;align=center;html=1;fontSize=12;fontStyle=0;aspect=fixed;shape=mxgraph.aws4.resourceIcon;resIcon=mxgraph.aws4.mobile;" parent="1" vertex="1">
          <mxGeometry x="120" y="334.5" width="78" height="78" as="geometry" />
        </mxCell>
        <mxCell id="Qq11cZZKiJJLbEFsRQUl-12" value="Route 53" style="sketch=0;points=[[0,0,0],[0.25,0,0],[0.5,0,0],[0.75,0,0],[1,0,0],[0,1,0],[0.25,1,0],[0.5,1,0],[0.75,1,0],[1,1,0],[0,0.25,0],[0,0.5,0],[0,0.75,0],[1,0.25,0],[1,0.5,0],[1,0.75,0]];outlineConnect=0;fontColor=#232F3E;gradientColor=#945DF2;gradientDirection=north;fillColor=#5A30B5;strokeColor=#ffffff;dashed=0;verticalLabelPosition=bottom;verticalAlign=top;align=center;html=1;fontSize=12;fontStyle=0;aspect=fixed;shape=mxgraph.aws4.resourceIcon;resIcon=mxgraph.aws4.route_53;" parent="1" vertex="1">
          <mxGeometry x="290" y="240" width="40" height="40" as="geometry" />
        </mxCell>
        <mxCell id="Qq11cZZKiJJLbEFsRQUl-16" value="AZ-a" style="fillColor=#dae8fc;strokeColor=#6c8ebf;dashed=1;verticalAlign=top;fontStyle=0;fontColor=#66B2FF;align=right;" parent="1" vertex="1">
          <mxGeometry x="420" y="190" width="580" height="190" as="geometry" />
        </mxCell>
        <mxCell id="Qq11cZZKiJJLbEFsRQUl-17" value="AZ-b" style="fillColor=#dae8fc;strokeColor=#6c8ebf;dashed=1;verticalAlign=top;fontStyle=0;fontColor=#66B2FF;align=right;" parent="1" vertex="1">
          <mxGeometry x="420" y="410" width="580" height="210" as="geometry" />
        </mxCell>
        <mxCell id="Qq11cZZKiJJLbEFsRQUl-13" value="Alb" style="sketch=0;outlineConnect=0;fontColor=#232F3E;gradientColor=none;fillColor=#4D27AA;strokeColor=none;dashed=0;verticalLabelPosition=bottom;verticalAlign=top;align=center;html=1;fontSize=12;fontStyle=0;aspect=fixed;pointerEvents=1;shape=mxgraph.aws4.application_load_balancer;" parent="1" vertex="1">
          <mxGeometry x="286.5" y="349.5" width="47" height="47" as="geometry" />
        </mxCell>
        <mxCell id="VVyzHIEydIfafASwC3Oe-25" value="" style="group" parent="1" vertex="1" connectable="0">
          <mxGeometry x="839" y="245" width="130" height="340" as="geometry" />
        </mxCell>
        <mxCell id="VVyzHIEydIfafASwC3Oe-12" value="MiddleWare" style="fillColor=#f5f5f5;strokeColor=#666666;dashed=1;verticalAlign=top;fontStyle=0;fontColor=#333333;" parent="VVyzHIEydIfafASwC3Oe-25" vertex="1">
          <mxGeometry width="130" height="340" as="geometry" />
        </mxCell>
        <mxCell id="VVyzHIEydIfafASwC3Oe-9" value="Redis" style="sketch=0;points=[[0,0,0],[0.25,0,0],[0.5,0,0],[0.75,0,0],[1,0,0],[0,1,0],[0.25,1,0],[0.5,1,0],[0.75,1,0],[1,1,0],[0,0.25,0],[0,0.5,0],[0,0.75,0],[1,0.25,0],[1,0.5,0],[1,0.75,0]];outlineConnect=0;fontColor=#232F3E;gradientColor=#4D72F3;gradientDirection=north;fillColor=#3334B9;strokeColor=#ffffff;dashed=0;verticalLabelPosition=bottom;verticalAlign=top;align=center;html=1;fontSize=12;fontStyle=0;aspect=fixed;shape=mxgraph.aws4.resourceIcon;resIcon=mxgraph.aws4.elasticache;" parent="VVyzHIEydIfafASwC3Oe-25" vertex="1">
          <mxGeometry x="42.5" y="160" width="45" height="45" as="geometry" />
        </mxCell>
        <mxCell id="VVyzHIEydIfafASwC3Oe-17" value="" style="group" parent="VVyzHIEydIfafASwC3Oe-25" vertex="1" connectable="0">
          <mxGeometry x="20" y="35" width="100" height="90" as="geometry" />
        </mxCell>
        <mxCell id="VVyzHIEydIfafASwC3Oe-4" value="EC2&amp;nbsp; Mysql" style="points=[[0,0],[0.25,0],[0.5,0],[0.75,0],[1,0],[1,0.25],[1,0.5],[1,0.75],[1,1],[0.75,1],[0.5,1],[0.25,1],[0,1],[0,0.75],[0,0.5],[0,0.25]];outlineConnect=0;html=1;whiteSpace=wrap;fontSize=12;fontStyle=0;shape=mxgraph.aws4.group;grIcon=mxgraph.aws4.group_ec2_instance_contents;strokeColor=#d6b656;fillColor=#fff2cc;verticalAlign=top;align=left;spacingLeft=30;dashed=0;" parent="VVyzHIEydIfafASwC3Oe-17" vertex="1">
          <mxGeometry width="100" height="90" as="geometry" />
        </mxCell>
        <mxCell id="VVyzHIEydIfafASwC3Oe-5" value="&lt;b&gt;Mysql&lt;/b&gt;" style="sketch=0;points=[[0,0,0],[0.25,0,0],[0.5,0,0],[0.75,0,0],[1,0,0],[0,1,0],[0.25,1,0],[0.5,1,0],[0.75,1,0],[1,1,0],[0,0.25,0],[0,0.5,0],[0,0.75,0],[1,0.25,0],[1,0.5,0],[1,0.75,0]];outlineConnect=0;fontColor=#232F3E;gradientColor=#F78E04;gradientDirection=north;fillColor=#D05C17;strokeColor=#ffffff;dashed=0;verticalLabelPosition=bottom;verticalAlign=top;align=center;html=1;fontSize=12;fontStyle=0;aspect=fixed;shape=mxgraph.aws4.resourceIcon;resIcon=mxgraph.aws4.ec2;" parent="VVyzHIEydIfafASwC3Oe-17" vertex="1">
          <mxGeometry x="57.27272727272727" y="31.5" width="36" height="36" as="geometry" />
        </mxCell>
        <mxCell id="VVyzHIEydIfafASwC3Oe-16" style="edgeStyle=orthogonalEdgeStyle;rounded=0;orthogonalLoop=1;jettySize=auto;html=1;entryX=0;entryY=0.5;entryDx=0;entryDy=0;entryPerimeter=0;" parent="VVyzHIEydIfafASwC3Oe-17" source="VVyzHIEydIfafASwC3Oe-11" target="VVyzHIEydIfafASwC3Oe-5" edge="1">
          <mxGeometry relative="1" as="geometry" />
        </mxCell>
        <mxCell id="VVyzHIEydIfafASwC3Oe-11" value="Nlb" style="sketch=0;outlineConnect=0;fontColor=#232F3E;gradientColor=none;fillColor=#4D27AA;strokeColor=none;dashed=0;verticalLabelPosition=bottom;verticalAlign=top;align=center;html=1;fontSize=12;fontStyle=0;aspect=fixed;pointerEvents=1;shape=mxgraph.aws4.network_load_balancer;" parent="VVyzHIEydIfafASwC3Oe-17" vertex="1">
          <mxGeometry x="2.727272727272727" y="31.5" width="36" height="36" as="geometry" />
        </mxCell>
        <mxCell id="VVyzHIEydIfafASwC3Oe-18" value="" style="group" parent="VVyzHIEydIfafASwC3Oe-25" vertex="1" connectable="0">
          <mxGeometry x="20" y="235" width="100" height="90" as="geometry" />
        </mxCell>
        <mxCell id="VVyzHIEydIfafASwC3Oe-19" value="EC2&amp;nbsp; MQ" style="points=[[0,0],[0.25,0],[0.5,0],[0.75,0],[1,0],[1,0.25],[1,0.5],[1,0.75],[1,1],[0.75,1],[0.5,1],[0.25,1],[0,1],[0,0.75],[0,0.5],[0,0.25]];outlineConnect=0;html=1;whiteSpace=wrap;fontSize=12;fontStyle=0;shape=mxgraph.aws4.group;grIcon=mxgraph.aws4.group_ec2_instance_contents;strokeColor=#d6b656;fillColor=#fff2cc;verticalAlign=top;align=left;spacingLeft=30;dashed=0;" parent="VVyzHIEydIfafASwC3Oe-18" vertex="1">
          <mxGeometry width="100" height="90" as="geometry" />
        </mxCell>
        <mxCell id="VVyzHIEydIfafASwC3Oe-20" value="&lt;b&gt;RocketMQ&lt;/b&gt;" style="sketch=0;points=[[0,0,0],[0.25,0,0],[0.5,0,0],[0.75,0,0],[1,0,0],[0,1,0],[0.25,1,0],[0.5,1,0],[0.75,1,0],[1,1,0],[0,0.25,0],[0,0.5,0],[0,0.75,0],[1,0.25,0],[1,0.5,0],[1,0.75,0]];outlineConnect=0;fontColor=#232F3E;gradientColor=#F78E04;gradientDirection=north;fillColor=#D05C17;strokeColor=#ffffff;dashed=0;verticalLabelPosition=bottom;verticalAlign=top;align=center;html=1;fontSize=12;fontStyle=0;aspect=fixed;shape=mxgraph.aws4.resourceIcon;resIcon=mxgraph.aws4.ec2;" parent="VVyzHIEydIfafASwC3Oe-18" vertex="1">
          <mxGeometry x="32.27272727272727" y="32.5" width="36" height="36" as="geometry" />
        </mxCell>
        <mxCell id="VVyzHIEydIfafASwC3Oe-30" value="Reids: all services&#xa;MySQL: user/room/mathc/game/center/pot&#xa;RocketMQ: user/room/match/game/center/pot" style="fillColor=none;strokeColor=#5A6C86;dashed=1;verticalAlign=top;fontStyle=0;fontColor=#666666;align=left;fontSize=19;" parent="1" vertex="1">
          <mxGeometry x="414" y="680" width="430" height="80" as="geometry" />
        </mxCell>
        <mxCell id="4pLfb9LxPZAfA3EKevqH-6" value="" style="fillColor=#ffe6cc;strokeColor=#d79b00;dashed=1;verticalAlign=top;fontStyle=0;" vertex="1" parent="1">
          <mxGeometry x="440" y="245" width="370" height="345" as="geometry" />
        </mxCell>
      </root>
    </mxGraphModel>
  </diagram>
</mxfile>
